<svg width="109" height="84" viewBox="0 0 109 84" fill="none" xmlns="http://www.w3.org/2000/svg">
<path d="M18.5675 69.5316L1.02622 69.2254L1.88994 19.7425L19.5762 20.0513C24.5535 20.1381 28.8208 21.2035 32.3783 23.2475C35.936 25.2753 38.6491 28.1505 40.5177 31.8729C42.4023 35.5955 43.2998 40.0261 43.2101 45.1644C43.1201 50.3189 42.0683 54.7315 40.0546 58.4023C38.057 62.0733 35.2288 64.8678 31.57 66.7858C27.9273 68.7041 23.5931 69.6193 18.5675 69.5316ZM11.6446 60.4441L18.2891 60.5601C21.3817 60.6141 23.9927 60.1118 26.1219 59.0533C28.2675 57.979 29.8922 56.2914 30.9958 53.9904C32.1157 51.6736 32.7079 48.6709 32.7723 44.9822C32.8361 41.3258 32.3487 38.3284 31.3099 35.99C30.2873 33.652 28.7305 31.9169 26.6395 30.7847C24.5485 29.6525 21.9567 29.0595 18.864 29.0055L12.1954 28.8891L11.6446 60.4441Z" fill="url(#paint0_linear_2319_27)"/>
<path d="M18.5675 69.5316L1.02622 69.2254L1.88994 19.7425L19.5762 20.0513C24.5535 20.1381 28.8208 21.2035 32.3783 23.2475C35.936 25.2753 38.6491 28.1505 40.5177 31.8729C42.4023 35.5955 43.2998 40.0261 43.2101 45.1644C43.1201 50.3189 42.0683 54.7315 40.0546 58.4023C38.057 62.0733 35.2288 64.8678 31.57 66.7858C27.9273 68.7041 23.5931 69.6193 18.5675 69.5316ZM11.6446 60.4441L18.2891 60.5601C21.3817 60.6141 23.9927 60.1118 26.1219 59.0533C28.2675 57.979 29.8922 56.2914 30.9958 53.9904C32.1157 51.6736 32.7079 48.6709 32.7723 44.9822C32.8361 41.3258 32.3487 38.3284 31.3099 35.99C30.2873 33.652 28.7305 31.9169 26.6395 30.7847C24.5485 29.6525 21.9567 29.0595 18.864 29.0055L12.1954 28.8891L11.6446 60.4441Z" fill="#00C9A7"/>
<path d="M21.8454 66.5435H4.30141V17.053H21.9904C26.9684 17.053 31.2537 18.0438 34.8463 20.0254C38.4388 21.9908 41.2017 24.8181 43.135 28.5074C45.0843 32.1966 46.059 36.6108 46.059 41.7499C46.059 46.9052 45.0843 51.3355 43.135 55.0408C41.2017 58.7461 38.4227 61.5896 34.7979 63.5711C31.1893 65.5527 26.8717 66.5435 21.8454 66.5435ZM14.765 57.5782H21.4104C24.5036 57.5782 27.1053 57.0304 29.2158 55.9349C31.3423 54.8233 32.9372 53.1076 34.0005 50.7877C35.0799 48.4517 35.6196 45.4391 35.6196 41.7499C35.6196 38.0929 35.0799 35.1045 34.0005 32.7846C32.9372 30.4648 31.3504 28.7571 29.2399 27.6616C27.1295 26.5661 24.5277 26.0183 21.4346 26.0183H14.765V57.5782Z" fill="#3F2C5D"/>
<path d="M49.4271 16.5821L62.3293 16.8074L75.3761 50.2915L75.956 50.3016L90.1634 17.2932L103.066 17.5184L102.202 67.0013L92.0541 66.8242L92.6163 34.6168L92.2056 34.6096L78.842 66.3518L71.9318 66.2312L59.6862 33.9212L59.2755 33.914L58.7112 66.2422L48.5633 66.065L49.4271 16.5821Z" fill="url(#paint1_linear_2319_27)"/>
<path d="M49.4271 16.5821L62.3293 16.8074L75.3761 50.2915L75.956 50.3016L90.1634 17.2932L103.066 17.5184L102.202 67.0013L92.0541 66.8242L92.6163 34.6168L92.2056 34.6096L78.842 66.3518L71.9318 66.2312L59.6862 33.9212L59.2755 33.914L58.7112 66.2422L48.5633 66.065L49.4271 16.5821Z" fill="#3F2C5D"/>
<path d="M51.4165 20.3304H64.3208L77.95 53.5818H78.5299L92.1591 20.3304H105.063V69.8208H94.914V37.6085H94.5032L81.6956 69.5791H74.7843L61.9767 37.4877H61.5659V69.8208H51.4165V20.3304Z" fill="url(#paint2_linear_2319_27)"/>
<path d="M51.4165 20.3304H64.3208L77.95 53.5818H78.5299L92.1591 20.3304H105.063V69.8208H94.914V37.6085H94.5032L81.6956 69.5791H74.7843L61.9767 37.4877H61.5659V69.8208H51.4165V20.3304Z" fill="#00C9A7"/>
<defs>
<linearGradient id="paint0_linear_2319_27" x1="22.8735" y1="3.59671" x2="21.4424" y2="85.5842" gradientUnits="userSpaceOnUse">
<stop stop-color="#FEFEDF"/>
<stop offset="0.9999" stop-color="#63B1BE"/>
<stop offset="1" stop-opacity="0"/>
</linearGradient>
<linearGradient id="paint1_linear_2319_27" x1="76.9096" y1="0.549751" x2="75.4785" y2="82.5373" gradientUnits="userSpaceOnUse">
<stop stop-color="#FEFEDF"/>
<stop offset="0.9999" stop-color="#63B1BE"/>
<stop offset="1" stop-opacity="0"/>
</linearGradient>
<linearGradient id="paint2_linear_2319_27" x1="78.6151" y1="3.8208" x2="78.6151" y2="85.8208" gradientUnits="userSpaceOnUse">
<stop stop-color="#FEFEDF"/>
<stop offset="0.9999" stop-color="#63B1BE"/>
<stop offset="1" stop-opacity="0"/>
</linearGradient>
</defs>
</svg>
