<svg width="111" height="93" viewBox="0 0 111 93" fill="none" xmlns="http://www.w3.org/2000/svg">
<path d="M21.8454 66H4.30141V16.5096H21.9904C26.9684 16.5096 31.2537 17.5004 34.8463 19.4819C38.4388 21.4473 41.2017 24.2747 43.135 27.9639C45.0843 31.6531 46.059 36.0673 46.059 41.2065C46.059 46.3617 45.0843 50.792 43.135 54.4973C41.2017 58.2027 38.4227 61.0461 34.7979 63.0277C31.1893 65.0092 26.8717 66 21.8454 66ZM14.765 57.0347H21.4104C24.5036 57.0347 27.1053 56.487 29.2158 55.3915C31.3423 54.2799 32.9372 52.5641 34.0005 50.2443C35.0799 47.9083 35.6196 44.8957 35.6196 41.2065C35.6196 37.5495 35.0799 34.561 34.0005 32.2412C32.9372 29.9213 31.3504 28.2136 29.2399 27.1181C27.1295 26.0226 24.5277 25.4749 21.4346 25.4749H14.765V57.0347Z" fill="#3F2C5D"/>
<path d="M52.6531 16.5096H65.5574L79.1865 49.761H79.7665L93.3957 16.5096H106.3V66H96.1505V33.7877H95.7397L82.9322 65.7583H76.0209L63.2133 33.6669H62.8025V66H52.6531V16.5096Z" fill="#00C9A7"/>
<path d="M11.7727 87H5.36506V68.0909H11.902C13.7794 68.0909 15.392 68.4695 16.7401 69.2266C18.0942 69.9775 19.1345 71.0578 19.8608 72.4673C20.5871 73.8769 20.9503 75.5634 20.9503 77.527C20.9503 79.4967 20.584 81.1894 19.8516 82.6051C19.1252 84.0208 18.0758 85.1072 16.7031 85.8643C15.3366 86.6214 13.6932 87 11.7727 87ZM8.79048 84.0362H11.6065C12.9238 84.0362 14.0225 83.7962 14.9027 83.3161C15.7829 82.8298 16.4446 82.1065 16.8878 81.1463C17.331 80.1799 17.5526 78.9735 17.5526 77.527C17.5526 76.0805 17.331 74.8802 16.8878 73.9261C16.4446 72.9659 15.7891 72.2488 14.9212 71.7749C14.0594 71.2947 12.9884 71.0547 11.7081 71.0547H8.79048V84.0362ZM24.0572 87V72.8182H27.3995V87H24.0572ZM25.7376 70.8054C25.2082 70.8054 24.7527 70.63 24.3711 70.2791C23.9895 69.9221 23.7987 69.4943 23.7987 68.9957C23.7987 68.491 23.9895 68.0632 24.3711 67.7124C24.7527 67.3553 25.2082 67.1768 25.7376 67.1768C26.2731 67.1768 26.7286 67.3553 27.104 67.7124C27.4857 68.0632 27.6765 68.491 27.6765 68.9957C27.6765 69.4943 27.4857 69.9221 27.104 70.2791C26.7286 70.63 26.2731 70.8054 25.7376 70.8054ZM37.0041 92.6136C35.8038 92.6136 34.7728 92.4505 33.911 92.1243C33.0493 91.8042 32.3568 91.3733 31.8336 90.8317C31.3104 90.29 30.9473 89.6899 30.7441 89.0312L33.7541 88.3018C33.8895 88.5788 34.0865 88.8527 34.345 89.1236C34.6035 89.4006 34.9513 89.6283 35.3883 89.8068C35.8315 89.9915 36.3886 90.0838 37.0595 90.0838C38.0074 90.0838 38.7922 89.853 39.4139 89.3913C40.0356 88.9358 40.3464 88.1849 40.3464 87.1385V84.4517H40.1802C40.0079 84.7964 39.7555 85.1503 39.4231 85.5135C39.0969 85.8767 38.6629 86.1813 38.1213 86.4276C37.5858 86.6738 36.9118 86.7969 36.0993 86.7969C35.0098 86.7969 34.0218 86.5414 33.1355 86.0305C32.2553 85.5135 31.5536 84.7441 31.0304 83.7223C30.5133 82.6944 30.2548 81.4079 30.2548 79.8629C30.2548 78.3056 30.5133 76.9915 31.0304 75.9205C31.5536 74.8433 32.2583 74.0277 33.1447 73.4737C34.0311 72.9136 35.019 72.6335 36.1085 72.6335C36.9395 72.6335 37.6227 72.7751 38.1582 73.0582C38.6999 73.3352 39.1307 73.6707 39.4508 74.0646C39.7709 74.4524 40.014 74.8187 40.1802 75.1634H40.3649V72.8182H43.661V87.2308C43.661 88.4434 43.3717 89.4467 42.7931 90.2408C42.2145 91.0348 41.4236 91.6288 40.4203 92.0227C39.417 92.4167 38.2782 92.6136 37.0041 92.6136ZM37.0318 84.1747C37.7396 84.1747 38.3429 84.0024 38.8414 83.6577C39.34 83.313 39.7186 82.8175 39.9771 82.1712C40.2356 81.5249 40.3649 80.7493 40.3649 79.8445C40.3649 78.9519 40.2356 78.1702 39.9771 77.4993C39.7247 76.8284 39.3493 76.3082 38.8507 75.9389C38.3583 75.5634 37.752 75.3757 37.0318 75.3757C36.287 75.3757 35.6653 75.5696 35.1667 75.9574C34.6681 76.3452 34.2927 76.8776 34.0403 77.5547C33.7879 78.2256 33.6618 78.9889 33.6618 79.8445C33.6618 80.7124 33.7879 81.4725 34.0403 82.125C34.2988 82.7713 34.6774 83.276 35.176 83.6392C35.6807 83.9962 36.2993 84.1747 37.0318 84.1747ZM47.0865 87V72.8182H50.4288V87H47.0865ZM48.7669 70.8054C48.2375 70.8054 47.782 70.63 47.4004 70.2791C47.0188 69.9221 46.8279 69.4943 46.8279 68.9957C46.8279 68.491 47.0188 68.0632 47.4004 67.7124C47.782 67.3553 48.2375 67.1768 48.7669 67.1768C49.3024 67.1768 49.7579 67.3553 50.1333 67.7124C50.515 68.0632 50.7058 68.491 50.7058 68.9957C50.7058 69.4943 50.515 69.9221 50.1333 70.2791C49.7579 70.63 49.3024 70.8054 48.7669 70.8054Z" fill="#00C9A7"/>
<path d="M54.0135 68.0909H58.2053L63.8189 81.7926H64.0405L69.6541 68.0909H73.8459V87H70.5589V74.0092H70.3835L65.1577 86.9446H62.7017L57.4759 73.9815H57.3004V87H54.0135V68.0909ZM83.7067 87.277C82.2848 87.277 81.0568 86.9815 80.0227 86.3906C78.9948 85.7936 78.2038 84.9503 77.6499 83.8608C77.0959 82.7652 76.8189 81.4756 76.8189 79.9922C76.8189 78.5334 77.0959 77.2531 77.6499 76.1513C78.21 75.0433 78.9917 74.1816 79.995 73.5661C80.9983 72.9444 82.1771 72.6335 83.5312 72.6335C84.4053 72.6335 85.2301 72.7751 86.0057 73.0582C86.7874 73.3352 87.4768 73.7661 88.0739 74.3509C88.6771 74.9356 89.151 75.6804 89.4957 76.5852C89.8404 77.4839 90.0128 78.5549 90.0128 79.7983V80.8232H78.3885V78.5703H86.8089C86.8028 77.9302 86.6643 77.3608 86.3935 76.8622C86.1226 76.3575 85.7441 75.9605 85.2578 75.6712C84.7777 75.3819 84.2176 75.2372 83.5774 75.2372C82.8942 75.2372 82.294 75.4034 81.777 75.7358C81.2599 76.062 80.8568 76.4929 80.5675 77.0284C80.2843 77.5578 80.1397 78.1394 80.1335 78.7734V80.7401C80.1335 81.5649 80.2843 82.2727 80.5859 82.8636C80.8875 83.4484 81.3092 83.8977 81.8509 84.2116C82.3925 84.5194 83.0265 84.6733 83.7528 84.6733C84.2391 84.6733 84.6792 84.6056 85.0732 84.4702C85.4671 84.3286 85.8087 84.1224 86.098 83.8516C86.3873 83.5807 86.6058 83.2453 86.7536 82.8452L89.8743 83.196C89.6773 84.0208 89.3018 84.741 88.7479 85.3565C88.2 85.9659 87.4983 86.4399 86.6428 86.7784C85.7872 87.1108 84.8085 87.277 83.7067 87.277ZM98.1032 87.2493C96.9891 87.2493 95.9919 86.9631 95.1117 86.3906C94.2315 85.8182 93.5359 84.9872 93.025 83.8977C92.5141 82.8082 92.2587 81.4848 92.2587 79.9276C92.2587 78.3518 92.5172 77.0223 93.0343 75.9389C93.5575 74.8494 94.2623 74.0277 95.1486 73.4737C96.035 72.9136 97.0229 72.6335 98.1124 72.6335C98.9434 72.6335 99.6266 72.7751 100.162 73.0582C100.698 73.3352 101.122 73.6707 101.436 74.0646C101.75 74.4524 101.993 74.8187 102.166 75.1634H102.304V68.0909H105.656V87H102.369V84.7656H102.166C101.993 85.1103 101.744 85.4766 101.418 85.8643C101.092 86.246 100.661 86.5722 100.125 86.843C99.5897 87.1139 98.9157 87.2493 98.1032 87.2493ZM99.0357 84.5071C99.7435 84.5071 100.347 84.3163 100.845 83.9347C101.344 83.5469 101.722 83.0083 101.981 82.3189C102.24 81.6295 102.369 80.8262 102.369 79.9091C102.369 78.992 102.24 78.1948 101.981 77.5178C101.729 76.8407 101.353 76.3144 100.855 75.9389C100.362 75.5634 99.7559 75.3757 99.0357 75.3757C98.2909 75.3757 97.6692 75.5696 97.1706 75.9574C96.6721 76.3452 96.2966 76.8807 96.0442 77.5639C95.7918 78.2472 95.6657 79.0289 95.6657 79.9091C95.6657 80.7955 95.7918 81.5864 96.0442 82.282C96.3027 82.9714 96.6813 83.5161 97.1799 83.9162C97.6846 84.3101 98.3032 84.5071 99.0357 84.5071Z" fill="#3F2C5D"/>
</svg>
